{
	"asset":{
		"generator":"Khronos glTF Blender I/O v4.5.47",
		"version":"2.0"
	},
	"extensionsUsed":[
		"KHR_materials_specular"
	],
	"scene":0,
	"scenes":[
		{
			"name":"Scene",
			"nodes":[
				0,
				1,
				2,
				3,
				4,
				5,
				6,
				7,
				8,
				9,
				10,
				11,
				12
			]
		}
	],
	"nodes":[
		{
			"mesh":0,
			"name":"V\u00e1lec.003",
			"scale":[
				0.0167889092117548,
				0.0167889092117548,
				0.0167889092117548
			],
			"translation":[
				0.2940843105316162,
				0.32626932859420776,
				0
			]
		},
		{
			"mesh":1,
			"name":"V\u00e1lec.004",
			"scale":[
				0.0167889092117548,
				0.0167889092117548,
				0.0167889092117548
			],
			"translation":[
				0.19874204695224762,
				0.35274791717529297,
				0
			]
		},
		{
			"mesh":2,
			"name":"Krychle.001",
			"scale":[
				-0.05108117684721947,
				-0.05108117684721947,
				-0.05108117684721947
			],
			"translation":[
				0.20793022215366364,
				0.1958303451538086,
				0
			]
		},
		{
			"mesh":3,
			"name":"Krychle.002",
			"scale":[
				0.03625429421663284,
				0.03625429421663284,
				0.03625429421663284
			],
			"translation":[
				0.11986877024173737,
				0.18826323747634888,
				0
			]
		},
		{
			"mesh":4,
			"name":"Krychle.003",
			"scale":[
				-0.048097968101501465,
				-0.048097968101501465,
				-0.048097968101501465
			],
			"translation":[
				0.019092896953225136,
				0.10392291843891144,
				0
			]
		},
		{
			"mesh":5,
			"name":"Krychle.004",
			"scale":[
				0.32532721757888794,
				0.20863260328769684,
				0.16347160935401917
			],
			"translation":[
				0.25865259766578674,
				-0.09217012673616409,
				0
			]
		},
		{
			"mesh":6,
			"name":"Krychle.005",
			"scale":[
				-0.09612882137298584,
				-0.09612882137298584,
				-0.09612882137298584
			],
			"translation":[
				-0.25475820899009705,
				0,
				0
			]
		},
		{
			"mesh":7,
			"name":"Krychle.006",
			"scale":[
				0.0826570987701416,
				0.0826570987701416,
				0.0826570987701416
			],
			"translation":[
				0.1257561445236206,
				0,
				0
			]
		},
		{
			"mesh":8,
			"name":"V\u00e1lec.005",
			"rotation":[
				0,
				0,
				-0.4153580367565155,
				0.9096580147743225
			],
			"scale":[
				0.01488313265144825,
				0.1293494999408722,
				0.014883131720125675
			],
			"translation":[
				0,
				0.15212666988372803,
				0.05044165253639221
			]
		},
		{
			"mesh":9,
			"name":"V\u00e1lec",
			"rotation":[
				0,
				0,
				-0.7071068286895752,
				0.7071068286895752
			],
			"scale":[
				-0.28121232986450195,
				-0.28121232986450195,
				-0.28121232986450195
			]
		},
		{
			"mesh":10,
			"name":"Krychle",
			"translation":[
				0,
				0.013258231803774834,
				0
			]
		},
		{
			"mesh":11,
			"name":"V\u00e1lec.001",
			"rotation":[
				-0.5,
				0.5,
				-0.5,
				0.5
			],
			"scale":[
				0.03403586894273758,
				0.06671719253063202,
				0.03403586894273758
			],
			"translation":[
				0.16292063891887665,
				0.3020186722278595,
				0
			]
		},
		{
			"mesh":12,
			"name":"V\u00e1lec.002",
			"rotation":[
				-0.5,
				0.5,
				-0.5,
				0.5000000596046448
			],
			"scale":[
				0.03403586894273758,
				0.03937096893787384,
				0.03403586894273758
			],
			"translation":[
				0.31172043085098267,
				0.27894166111946106,
				0.003431551391258836
			]
		}
	],
	"materials":[
		{
			"doubleSided":true,
			"extensions":{
				"KHR_materials_specular":{
					"specularFactor":0,
					"specularColorFactor":[
						1.0,
						0.9453791379928589,
						0.8620071411132812
					]
				}
			},
			"name":"Old Metal.001",
			"normalTexture":{
				"index":0,
				"texCoord":1
			},
			"pbrMetallicRoughness":{
				"baseColorTexture":{
					"index":1,
					"texCoord":1
				},
				"metallicRoughnessTexture":{
					"index":2,
					"texCoord":1
				}
			}
		},
		{
			"doubleSided":true,
			"extensions":{
				"KHR_materials_specular":{
					"specularFactor":0
				}
			},
			"name":"Old Metal",
			"normalTexture":{
				"index":3,
				"texCoord":1
			},
			"pbrMetallicRoughness":{
				"baseColorTexture":{
					"index":4,
					"texCoord":1
				},
				"metallicRoughnessTexture":{
					"index":5,
					"texCoord":1
				}
			}
		},
		{
			"doubleSided":true,
			"name":"Procedural blue marble",
			"pbrMetallicRoughness":{
				"metallicFactor":0
			}
		}
	],
	"meshes":[
		{
			"name":"V\u00e1lec.003",
			"primitives":[
				{
					"attributes":{
						"POSITION":0,
						"NORMAL":1,
						"TEXCOORD_0":2,
						"TEXCOORD_1":3
					},
					"indices":4,
					"material":0
				}
			]
		},
		{
			"name":"V\u00e1lec.004",
			"primitives":[
				{
					"attributes":{
						"POSITION":5,
						"NORMAL":6,
						"TEXCOORD_0":7,
						"TEXCOORD_1":8
					},
					"indices":4,
					"material":0
				}
			]
		},
		{
			"name":"Krychle.001",
			"primitives":[
				{
					"attributes":{
						"POSITION":9,
						"NORMAL":10,
						"TEXCOORD_0":11,
						"TEXCOORD_1":12
					},
					"indices":13,
					"material":1
				}
			]
		},
		{
			"name":"Krychle.002",
			"primitives":[
				{
					"attributes":{
						"POSITION":14,
						"NORMAL":15,
						"TEXCOORD_0":16,
						"TEXCOORD_1":17
					},
					"indices":18,
					"material":1
				}
			]
		},
		{
			"name":"Krychle.003",
			"primitives":[
				{
					"attributes":{
						"POSITION":19,
						"NORMAL":20,
						"TEXCOORD_0":21,
						"TEXCOORD_1":22
					},
					"indices":18,
					"material":2
				}
			]
		},
		{
			"name":"Krychle.004",
			"primitives":[
				{
					"attributes":{
						"POSITION":23,
						"NORMAL":24,
						"TEXCOORD_0":25,
						"TEXCOORD_1":26
					},
					"indices":27,
					"material":1
				}
			]
		},
		{
			"name":"Krychle.005",
			"primitives":[
				{
					"attributes":{
						"POSITION":28,
						"NORMAL":29,
						"TEXCOORD_0":30,
						"TEXCOORD_1":31
					},
					"indices":32,
					"material":2
				}
			]
		},
		{
			"name":"Krychle.006",
			"primitives":[
				{
					"attributes":{
						"POSITION":33,
						"NORMAL":34,
						"TEXCOORD_0":35,
						"TEXCOORD_1":36
					},
					"indices":37,
					"material":2
				}
			]
		},
		{
			"name":"V\u00e1lec.005",
			"primitives":[
				{
					"attributes":{
						"POSITION":38,
						"NORMAL":39,
						"TEXCOORD_0":40,
						"TEXCOORD_1":41
					},
					"indices":42,
					"material":2
				}
			]
		},
		{
			"name":"V\u00e1lec",
			"primitives":[
				{
					"attributes":{
						"POSITION":43,
						"NORMAL":44,
						"TEXCOORD_0":45,
						"TEXCOORD_1":46
					},
					"indices":47,
					"material":1
				}
			]
		},
		{
			"name":"Krychle",
			"primitives":[
				{
					"attributes":{
						"POSITION":48,
						"NORMAL":49,
						"TEXCOORD_0":50,
						"TEXCOORD_1":51
					},
					"indices":52,
					"material":2
				}
			]
		},
		{
			"name":"V\u00e1lec.001",
			"primitives":[
				{
					"attributes":{
						"POSITION":53,
						"NORMAL":54,
						"TEXCOORD_0":55,
						"TEXCOORD_1":56
					},
					"indices":57,
					"material":0
				}
			]
		},
		{
			"name":"V\u00e1lec.002",
			"primitives":[
				{
					"attributes":{
						"POSITION":58,
						"NORMAL":59,
						"TEXCOORD_0":60,
						"TEXCOORD_1":61
					},
					"indices":62,
					"material":0
				}
			]
		}
	],
	"textures":[
		{
			"sampler":0,
			"source":0
		},
		{
			"sampler":0,
			"source":1
		},
		{
			"sampler":0,
			"source":2
		},
		{
			"sampler":0,
			"source":3
		},
		{
			"sampler":0,
			"source":4
		},
		{
			"sampler":0,
			"source":5
		}
	],
	"images":[
		{
			"mimeType":"image/png",
			"name":"metal_22_normal",
			"uri":"metal_22_normal.png"
		},
		{
			"mimeType":"image/png",
			"name":"metal_22_albedo",
			"uri":"metal_22_albedo.png"
		},
		{
			"mimeType":"image/png",
			"name":"metal_22_metal-metal_22_rough",
			"uri":"metal_22_metal-metal_22_rough.png"
		},
		{
			"mimeType":"image/jpeg",
			"name":"metal_21_normal",
			"uri":"metal_21_normal.jpg"
		},
		{
			"mimeType":"image/jpeg",
			"name":"metal_21_albedo",
			"uri":"metal_21_albedo.jpg"
		},
		{
			"mimeType":"image/png",
			"name":"metal_21_metal-metal_21_rough",
			"uri":"metal_21_metal-metal_21_rough.png"
		}
	],
	"accessors":[
		{
			"bufferView":0,
			"componentType":5126,
			"count":192,
			"max":[
				1,
				1,
				1
			],
			"min":[
				-1,
				-1,
				-1
			],
			"type":"VEC3"
		},
		{
			"bufferView":1,
			"componentType":5126,
			"count":192,
			"type":"VEC3"
		},
		{
			"bufferView":2,
			"componentType":5126,
			"count":192,
			"type":"VEC2"
		},
		{
			"bufferView":3,
			"componentType":5126,
			"count":192,
			"type":"VEC2"
		},
		{
			"bufferView":4,
			"componentType":5123,
			"count":372,
			"type":"SCALAR"
		},
		{
			"bufferView":5,
			"componentType":5126,
			"count":192,
			"max":[
				1,
				1,
				1
			],
			"min":[
				-1,
				-1,
				-1
			],
			"type":"VEC3"
		},
		{
			"bufferView":6,
			"componentType":5126,
			"count":192,
			"type":"VEC3"
		},
		{
			"bufferView":7,
			"componentType":5126,
			"count":192,
			"type":"VEC2"
		},
		{
			"bufferView":8,
			"componentType":5126,
			"count":192,
			"type":"VEC2"
		},
		{
			"bufferView":9,
			"componentType":5126,
			"count":34,
			"max":[
				1,
				1,
				1
			],
			"min":[
				-1,
				-1,
				-1
			],
			"type":"VEC3"
		},
		{
			"bufferView":10,
			"componentType":5126,
			"count":34,
			"type":"VEC3"
		},
		{
			"bufferView":11,
			"componentType":5126,
			"count":34,
			"type":"VEC2"
		},
		{
			"bufferView":12,
			"componentType":5126,
			"count":34,
			"type":"VEC2"
		},
		{
			"bufferView":13,
			"componentType":5123,
			"count":60,
			"type":"SCALAR"
		},
		{
			"bufferView":14,
			"componentType":5126,
			"count":24,
			"max":[
				1,
				1,
				1
			],
			"min":[
				-3.2265210151672363,
				-1,
				-1
			],
			"type":"VEC3"
		},
		{
			"bufferView":15,
			"componentType":5126,
			"count":24,
			"type":"VEC3"
		},
		{
			"bufferView":16,
			"componentType":5126,
			"count":24,
			"type":"VEC2"
		},
		{
			"bufferView":17,
			"componentType":5126,
			"count":24,
			"type":"VEC2"
		},
		{
			"bufferView":18,
			"componentType":5123,
			"count":36,
			"type":"SCALAR"
		},
		{
			"bufferView":19,
			"componentType":5126,
			"count":24,
			"max":[
				1,
				-0.15645670890808105,
				1
			],
			"min":[
				-5.733494758605957,
				-1,
				-1
			],
			"type":"VEC3"
		},
		{
			"bufferView":20,
			"componentType":5126,
			"count":24,
			"type":"VEC3"
		},
		{
			"bufferView":21,
			"componentType":5126,
			"count":24,
			"type":"VEC2"
		},
		{
			"bufferView":22,
			"componentType":5126,
			"count":24,
			"type":"VEC2"
		},
		{
			"bufferView":23,
			"componentType":5126,
			"count":6448,
			"max":[
				0.6287141442298889,
				1.1991732120513916,
				0.7318534851074219
			],
			"min":[
				-3.6917874813079834,
				-1.80033278465271,
				-0.5281538963317871
			],
			"type":"VEC3"
		},
		{
			"bufferView":24,
			"componentType":5126,
			"count":6448,
			"type":"VEC3"
		},
		{
			"bufferView":25,
			"componentType":5126,
			"count":6448,
			"type":"VEC2"
		},
		{
			"bufferView":26,
			"componentType":5126,
			"count":6448,
			"type":"VEC2"
		},
		{
			"bufferView":27,
			"componentType":5123,
			"count":11544,
			"type":"SCALAR"
		},
		{
			"bufferView":28,
			"componentType":5126,
			"count":1929,
			"max":[
				8.323206901550293,
				1,
				1
			],
			"min":[
				-2.7490620613098145,
				-1.06709885597229,
				-1.0191876888275146
			],
			"type":"VEC3"
		},
		{
			"bufferView":29,
			"componentType":5126,
			"count":1929,
			"type":"VEC3"
		},
		{
			"bufferView":30,
			"componentType":5126,
			"count":1929,
			"type":"VEC2"
		},
		{
			"bufferView":31,
			"componentType":5126,
			"count":1929,
			"type":"VEC2"
		},
		{
			"bufferView":32,
			"componentType":5123,
			"count":4176,
			"type":"SCALAR"
		},
		{
			"bufferView":33,
			"componentType":5126,
			"count":154,
			"max":[
				1,
				1,
				1.1377781629562378
			],
			"min":[
				-1,
				-1,
				-1
			],
			"type":"VEC3"
		},
		{
			"bufferView":34,
			"componentType":5126,
			"count":154,
			"type":"VEC3"
		},
		{
			"bufferView":35,
			"componentType":5126,
			"count":154,
			"type":"VEC2"
		},
		{
			"bufferView":36,
			"componentType":5126,
			"count":154,
			"type":"VEC2"
		},
		{
			"bufferView":37,
			"componentType":5123,
			"count":258,
			"type":"SCALAR"
		},
		{
			"bufferView":38,
			"componentType":5126,
			"count":192,
			"max":[
				3.5060672760009766,
				1.3830376863479614,
				1.556557536125183
			],
			"min":[
				-1,
				-1,
				-1
			],
			"type":"VEC3"
		},
		{
			"bufferView":39,
			"componentType":5126,
			"count":192,
			"type":"VEC3"
		},
		{
			"bufferView":40,
			"componentType":5126,
			"count":192,
			"type":"VEC2"
		},
		{
			"bufferView":41,
			"componentType":5126,
			"count":192,
			"type":"VEC2"
		},
		{
			"bufferView":42,
			"componentType":5123,
			"count":372,
			"type":"SCALAR"
		},
		{
			"bufferView":43,
			"componentType":5126,
			"count":2120,
			"max":[
				1.2906376123428345,
				0.3129030764102936,
				0.2859179675579071
			],
			"min":[
				0.7188016772270203,
				-1.3269282579421997,
				-0.2859179675579071
			],
			"type":"VEC3"
		},
		{
			"bufferView":44,
			"componentType":5126,
			"count":2120,
			"type":"VEC3"
		},
		{
			"bufferView":45,
			"componentType":5126,
			"count":2120,
			"type":"VEC2"
		},
		{
			"bufferView":46,
			"componentType":5126,
			"count":2120,
			"type":"VEC2"
		},
		{
			"bufferView":47,
			"componentType":5123,
			"count":3828,
			"type":"SCALAR"
		},
		{
			"bufferView":48,
			"componentType":5126,
			"count":90,
			"max":[
				0.24187807738780975,
				0.3667030334472656,
				0.07742752879858017
			],
			"min":[
				0.03235311806201935,
				0.20278021693229675,
				-0.07742752879858017
			],
			"type":"VEC3"
		},
		{
			"bufferView":49,
			"componentType":5126,
			"count":90,
			"type":"VEC3"
		},
		{
			"bufferView":50,
			"componentType":5126,
			"count":90,
			"type":"VEC2"
		},
		{
			"bufferView":51,
			"componentType":5126,
			"count":90,
			"type":"VEC2"
		},
		{
			"bufferView":52,
			"componentType":5123,
			"count":168,
			"type":"SCALAR"
		},
		{
			"bufferView":53,
			"componentType":5126,
			"count":450,
			"max":[
				1,
				1.4590617418289185,
				1
			],
			"min":[
				-1,
				-1.4589265584945679,
				-1
			],
			"type":"VEC3"
		},
		{
			"bufferView":54,
			"componentType":5126,
			"count":450,
			"type":"VEC3"
		},
		{
			"bufferView":55,
			"componentType":5126,
			"count":450,
			"type":"VEC2"
		},
		{
			"bufferView":56,
			"componentType":5126,
			"count":450,
			"type":"VEC2"
		},
		{
			"bufferView":57,
			"componentType":5123,
			"count":948,
			"type":"SCALAR"
		},
		{
			"bufferView":58,
			"componentType":5126,
			"count":450,
			"max":[
				1,
				1.4590617418289185,
				1
			],
			"min":[
				-1,
				-1.6152832508087158,
				-1
			],
			"type":"VEC3"
		},
		{
			"bufferView":59,
			"componentType":5126,
			"count":450,
			"type":"VEC3"
		},
		{
			"bufferView":60,
			"componentType":5126,
			"count":450,
			"type":"VEC2"
		},
		{
			"bufferView":61,
			"componentType":5126,
			"count":450,
			"type":"VEC2"
		},
		{
			"bufferView":62,
			"componentType":5123,
			"count":948,
			"type":"SCALAR"
		}
	],
	"bufferViews":[
		{
			"buffer":0,
			"byteLength":2304,
			"byteOffset":0,
			"target":34962
		},
		{
			"buffer":0,
			"byteLength":2304,
			"byteOffset":2304,
			"target":34962
		},
		{
			"buffer":0,
			"byteLength":1536,
			"byteOffset":4608,
			"target":34962
		},
		{
			"buffer":0,
			"byteLength":1536,
			"byteOffset":6144,
			"target":34962
		},
		{
			"buffer":0,
			"byteLength":744,
			"byteOffset":7680,
			"target":34963
		},
		{
			"buffer":0,
			"byteLength":2304,
			"byteOffset":8424,
			"target":34962
		},
		{
			"buffer":0,
			"byteLength":2304,
			"byteOffset":10728,
			"target":34962
		},
		{
			"buffer":0,
			"byteLength":1536,
			"byteOffset":13032,
			"target":34962
		},
		{
			"buffer":0,
			"byteLength":1536,
			"byteOffset":14568,
			"target":34962
		},
		{
			"buffer":0,
			"byteLength":408,
			"byteOffset":16104,
			"target":34962
		},
		{
			"buffer":0,
			"byteLength":408,
			"byteOffset":16512,
			"target":34962
		},
		{
			"buffer":0,
			"byteLength":272,
			"byteOffset":16920,
			"target":34962
		},
		{
			"buffer":0,
			"byteLength":272,
			"byteOffset":17192,
			"target":34962
		},
		{
			"buffer":0,
			"byteLength":120,
			"byteOffset":17464,
			"target":34963
		},
		{
			"buffer":0,
			"byteLength":288,
			"byteOffset":17584,
			"target":34962
		},
		{
			"buffer":0,
			"byteLength":288,
			"byteOffset":17872,
			"target":34962
		},
		{
			"buffer":0,
			"byteLength":192,
			"byteOffset":18160,
			"target":34962
		},
		{
			"buffer":0,
			"byteLength":192,
			"byteOffset":18352,
			"target":34962
		},
		{
			"buffer":0,
			"byteLength":72,
			"byteOffset":18544,
			"target":34963
		},
		{
			"buffer":0,
			"byteLength":288,
			"byteOffset":18616,
			"target":34962
		},
		{
			"buffer":0,
			"byteLength":288,
			"byteOffset":18904,
			"target":34962
		},
		{
			"buffer":0,
			"byteLength":192,
			"byteOffset":19192,
			"target":34962
		},
		{
			"buffer":0,
			"byteLength":192,
			"byteOffset":19384,
			"target":34962
		},
		{
			"buffer":0,
			"byteLength":77376,
			"byteOffset":19576,
			"target":34962
		},
		{
			"buffer":0,
			"byteLength":77376,
			"byteOffset":96952,
			"target":34962
		},
		{
			"buffer":0,
			"byteLength":51584,
			"byteOffset":174328,
			"target":34962
		},
		{
			"buffer":0,
			"byteLength":51584,
			"byteOffset":225912,
			"target":34962
		},
		{
			"buffer":0,
			"byteLength":23088,
			"byteOffset":277496,
			"target":34963
		},
		{
			"buffer":0,
			"byteLength":23148,
			"byteOffset":300584,
			"target":34962
		},
		{
			"buffer":0,
			"byteLength":23148,
			"byteOffset":323732,
			"target":34962
		},
		{
			"buffer":0,
			"byteLength":15432,
			"byteOffset":346880,
			"target":34962
		},
		{
			"buffer":0,
			"byteLength":15432,
			"byteOffset":362312,
			"target":34962
		},
		{
			"buffer":0,
			"byteLength":8352,
			"byteOffset":377744,
			"target":34963
		},
		{
			"buffer":0,
			"byteLength":1848,
			"byteOffset":386096,
			"target":34962
		},
		{
			"buffer":0,
			"byteLength":1848,
			"byteOffset":387944,
			"target":34962
		},
		{
			"buffer":0,
			"byteLength":1232,
			"byteOffset":389792,
			"target":34962
		},
		{
			"buffer":0,
			"byteLength":1232,
			"byteOffset":391024,
			"target":34962
		},
		{
			"buffer":0,
			"byteLength":516,
			"byteOffset":392256,
			"target":34963
		},
		{
			"buffer":0,
			"byteLength":2304,
			"byteOffset":392772,
			"target":34962
		},
		{
			"buffer":0,
			"byteLength":2304,
			"byteOffset":395076,
			"target":34962
		},
		{
			"buffer":0,
			"byteLength":1536,
			"byteOffset":397380,
			"target":34962
		},
		{
			"buffer":0,
			"byteLength":1536,
			"byteOffset":398916,
			"target":34962
		},
		{
			"buffer":0,
			"byteLength":744,
			"byteOffset":400452,
			"target":34963
		},
		{
			"buffer":0,
			"byteLength":25440,
			"byteOffset":401196,
			"target":34962
		},
		{
			"buffer":0,
			"byteLength":25440,
			"byteOffset":426636,
			"target":34962
		},
		{
			"buffer":0,
			"byteLength":16960,
			"byteOffset":452076,
			"target":34962
		},
		{
			"buffer":0,
			"byteLength":16960,
			"byteOffset":469036,
			"target":34962
		},
		{
			"buffer":0,
			"byteLength":7656,
			"byteOffset":485996,
			"target":34963
		},
		{
			"buffer":0,
			"byteLength":1080,
			"byteOffset":493652,
			"target":34962
		},
		{
			"buffer":0,
			"byteLength":1080,
			"byteOffset":494732,
			"target":34962
		},
		{
			"buffer":0,
			"byteLength":720,
			"byteOffset":495812,
			"target":34962
		},
		{
			"buffer":0,
			"byteLength":720,
			"byteOffset":496532,
			"target":34962
		},
		{
			"buffer":0,
			"byteLength":336,
			"byteOffset":497252,
			"target":34963
		},
		{
			"buffer":0,
			"byteLength":5400,
			"byteOffset":497588,
			"target":34962
		},
		{
			"buffer":0,
			"byteLength":5400,
			"byteOffset":502988,
			"target":34962
		},
		{
			"buffer":0,
			"byteLength":3600,
			"byteOffset":508388,
			"target":34962
		},
		{
			"buffer":0,
			"byteLength":3600,
			"byteOffset":511988,
			"target":34962
		},
		{
			"buffer":0,
			"byteLength":1896,
			"byteOffset":515588,
			"target":34963
		},
		{
			"buffer":0,
			"byteLength":5400,
			"byteOffset":517484,
			"target":34962
		},
		{
			"buffer":0,
			"byteLength":5400,
			"byteOffset":522884,
			"target":34962
		},
		{
			"buffer":0,
			"byteLength":3600,
			"byteOffset":528284,
			"target":34962
		},
		{
			"buffer":0,
			"byteLength":3600,
			"byteOffset":531884,
			"target":34962
		},
		{
			"buffer":0,
			"byteLength":1896,
			"byteOffset":535484,
			"target":34963
		}
	],
	"samplers":[
		{
			"magFilter":9729,
			"minFilter":9987
		}
	],
	"buffers":[
		{
			"byteLength":537380,
			"uri":"pepa.bin"
		}
	]
}
